<svg width="50" height="50" viewBox="0 0 50 50" fill="none" xmlns="http://www.w3.org/2000/svg">
<rect width="50" height="50" rx="9" fill="#1D2D54"/>
<path d="M18.82 33.21C17.7 33.21 16.657 33.028 15.691 32.664C14.739 32.286 13.906 31.761 13.192 31.089C12.492 30.403 11.946 29.598 11.554 28.674C11.162 27.75 10.966 26.742 10.966 25.65C10.966 24.558 11.162 23.55 11.554 22.626C11.946 21.702 12.499 20.904 13.213 20.232C13.927 19.546 14.76 19.021 15.712 18.657C16.664 18.279 17.707 18.09 18.841 18.09C20.045 18.09 21.144 18.3 22.138 18.72C23.132 19.126 23.972 19.735 24.658 20.547L22.894 22.206C22.362 21.632 21.767 21.205 21.109 20.925C20.451 20.631 19.737 20.484 18.967 20.484C18.197 20.484 17.49 20.61 16.846 20.862C16.216 21.114 15.663 21.471 15.187 21.933C14.725 22.395 14.361 22.941 14.095 23.571C13.843 24.201 13.717 24.894 13.717 25.65C13.717 26.406 13.843 27.099 14.095 27.729C14.361 28.359 14.725 28.905 15.187 29.367C15.663 29.829 16.216 30.186 16.846 30.438C17.49 30.69 18.197 30.816 18.967 30.816C19.737 30.816 20.451 30.676 21.109 30.396C21.767 30.102 22.362 29.661 22.894 29.073L24.658 30.753C23.972 31.551 23.132 32.16 22.138 32.58C21.144 33 20.038 33.21 18.82 33.21Z" fill="white"/>
<path d="M21.98 33V19H24.1L30.24 29.22H29.1L35.14 19H37.26L37.3 33H34.82L34.8 22.86H35.32L30.2 31.4H29.04L23.84 22.86H24.44V33H21.98Z" fill="white"/>
</svg>
